<?xml version="1.0" encoding="UTF-8" standalone="no"?>
<!-- Created with Inkscape (http://www.inkscape.org/) -->

<svg
   xmlns:dc="http://purl.org/dc/elements/1.1/"
   xmlns:cc="http://creativecommons.org/ns#"
   xmlns:rdf="http://www.w3.org/1999/02/22-rdf-syntax-ns#"
   xmlns:svg="http://www.w3.org/2000/svg"
   xmlns="http://www.w3.org/2000/svg"
   xmlns:sodipodi="http://sodipodi.sourceforge.net/DTD/sodipodi-0.dtd"
   xmlns:inkscape="http://www.inkscape.org/namespaces/inkscape"
   width="24"
   height="480"
   viewBox="0 0 24 480"
   id="svg4157"
   version="1.1"
   inkscape:version="0.92.0 r15299"
   sodipodi:docname="icons.svg">
  <defs
     id="defs4159" />
  <sodipodi:namedview
     id="base"
     pagecolor="#ffffff"
     bordercolor="#666666"
     borderopacity="1.0"
     inkscape:pageopacity="0.0"
     inkscape:pageshadow="2"
     inkscape:zoom="7.9999999"
     inkscape:cx="-13.173791"
     inkscape:cy="439.34921"
     inkscape:document-units="px"
     inkscape:current-layer="layer1"
     showgrid="true"
     units="px"
     inkscape:showpageshadow="false"
     inkscape:window-width="1920"
     inkscape:window-height="1017"
     inkscape:window-x="-8"
     inkscape:window-y="-8"
     inkscape:window-maximized="1"
     inkscape:object-nodes="false"
     inkscape:snap-bbox="false"
     inkscape:bbox-nodes="true"
     inkscape:snap-object-midpoints="true"
     inkscape:snap-nodes="false"
     inkscape:snap-global="false">
    <inkscape:grid
       type="xygrid"
       id="grid4705"
       spacingx="6.0000001"
       spacingy="6.0000001"
       color="#000000"
       opacity="0.07058824"
       empcolor="#000000"
       empopacity="0.17647059"
       empspacing="4"
       visible="true"
       dotted="false" />
  </sodipodi:namedview>
  <metadata
     id="metadata4162">
    <rdf:RDF>
      <cc:Work
         rdf:about="">
        <dc:format>image/svg+xml</dc:format>
        <dc:type
           rdf:resource="http://purl.org/dc/dcmitype/StillImage" />
        <dc:title />
      </cc:Work>
    </rdf:RDF>
  </metadata>
  <g
     inkscape:label="icons"
     inkscape:groupmode="layer"
     id="layer1"
     transform="translate(0,-572.36216)">
    <g
       id="g4497"
       transform="translate(0,572.36215)">
      <path
         id="path4483"
         d="M 0,0 H 24 V 24 H 0 Z"
         inkscape:connector-curvature="0"
         style="fill:none" />
      <path
         id="path4485"
         d="M 12,2 C 6.48,2 2,6.48 2,12 2,17.52 6.48,22 12,22 17.52,22 22,17.52 22,12 22,6.48 17.52,2 12,2 Z m 5,11 h -4 v 4 H 11 V 13 H 7 v -2 h 4 V 7 h 2 v 4 h 4 z"
         inkscape:connector-curvature="0" />
    </g>
    <g
       id="g4513"
       transform="translate(3.9999941e-7,596.36215)">
      <path
         id="path4499"
         d="M 0,0 H 24 V 24 H 0 Z"
         inkscape:connector-curvature="0"
         style="fill:none" />
      <path
         id="path4501"
         d="M 12,2 C 6.48,2 2,6.48 2,12 2,17.52 6.48,22 12,22 17.52,22 22,17.52 22,12 22,6.48 17.52,2 12,2 Z m 5,11 H 7 v -2 h 10 z"
         inkscape:connector-curvature="0" />
    </g>
    <path
       id="path4527"
       d="m 12,624.86215 c -4.9999998,0 -9.2699998,3.11 -10.9999998,7.5 1.73,4.39 6,7.5 10.9999998,7.5 5,0 9.27,-3.11 11,-7.5 -1.73,-4.39 -6,-7.5 -11,-7.5 z m 0,12.5 c -2.7599998,0 -4.9999998,-2.24 -4.9999998,-5 0,-2.76 2.24,-5 4.9999998,-5 2.76,0 5,2.24 5,5 0,2.76 -2.24,5 -5,5 z m 0,-8 c -1.66,0 -2.9999998,1.34 -2.9999998,3 0,1.66 1.3399998,3 2.9999998,3 1.66,0 3,-1.34 3,-3 0,-1.66 -1.34,-3 -3,-3 z"
       inkscape:connector-curvature="0" />
  </g>
</svg>
